<svg id="Layer_1" data-name="Layer 1" xmlns="http://www.w3.org/2000/svg" viewBox="0 0 1600 1000"><defs><style>.cls-1{fill:#f0f4f7;}.cls-2{fill:#fff;}.cls-3{fill:#aceafd;}.cls-4{fill:#9ab7be;}.cls-5{fill:#4a7b9d;opacity:0.48;}</style></defs><rect class="cls-1" width="1600" height="1000"/><polygon class="cls-2" points="1432.63 297.96 1528.52 334.63 1495.41 346.19 1432.63 297.96"/><polygon class="cls-3" points="1495.41 346.19 1488.82 380.73 1432.63 297.96 1495.41 346.19"/><polygon class="cls-4" points="1488.82 380.73 1481.44 354.74 1432.63 297.96 1488.82 380.73"/><polygon class="cls-2" points="1432.63 297.96 1452.05 377.07 1481.44 354.74 1432.63 297.96"/><path class="cls-5" d="M1543.45,567.91h0c2.28,1.54,4.69,3.08,7.17,4.56a1.29,1.29,0,0,0,1.66-.35,1,1,0,0,0-.29-1.51c-2.44-1.46-4.82-3-7.07-4.5a1.26,1.26,0,0,0-1.66.27A1,1,0,0,0,1543.45,567.91Zm-6.79-4.93a1.27,1.27,0,0,0,1.63-.21,1,1,0,0,0-.08-1.54c-2.21-1.72-4.34-3.51-6.32-5.31a1.26,1.26,0,0,0-1.68.06,1,1,0,0,0,0,1.55c2,1.84,4.19,3.66,6.44,5.41Zm21.3,13.61.12.07c2.45,1.31,5,2.6,7.66,3.84a1.29,1.29,0,0,0,1.62-.49,1,1,0,0,0-.44-1.47c-2.6-1.23-5.15-2.51-7.57-3.8a1.29,1.29,0,0,0-1.64.43A1,1,0,0,0,1558,576.59Zm-33.57-24.8a1.27,1.27,0,0,0,1.5-.08,1.06,1.06,0,0,0,.17-1.55c-1.87-2-3.64-4.11-5.25-6.22a1.21,1.21,0,0,0-1.64-.2,1.05,1.05,0,0,0-.32,1.53,83.12,83.12,0,0,0,5.37,6.37A.8.8,0,0,0,1524.39,551.79Zm49,32.12a1.32,1.32,0,0,0,.2.12c2.58,1.09,5.27,2.18,8,3.23a1.28,1.28,0,0,0,1.58-.6,1,1,0,0,0-.56-1.43c-2.71-1-5.37-2.12-7.92-3.21a1.29,1.29,0,0,0-1.6.56A1,1,0,0,0,1573.39,583.91Zm-58.92-45.18a1.23,1.23,0,0,0,1.31,0,1.1,1.1,0,0,0,.48-1.52,68,68,0,0,1-3.76-7.1,1.18,1.18,0,0,0-1.55-.51,1.12,1.12,0,0,0-.65,1.47,75.14,75.14,0,0,0,3.87,7.3A1,1,0,0,0,1514.47,538.73Zm75,51.37a1.71,1.71,0,0,0,.27.14c2.67.93,5.44,1.85,8.24,2.73a1.29,1.29,0,0,0,1.54-.69,1,1,0,0,0-.66-1.39c-2.77-.88-5.52-1.79-8.17-2.71a1.28,1.28,0,0,0-1.56.65A1,1,0,0,0,1589.45,590.1Zm-81.74-66.16a1.26,1.26,0,0,0,1.08.15,1.16,1.16,0,0,0,.81-1.41,67.45,67.45,0,0,1-2-7.77,1.11,1.11,0,0,0-1.37-.82,1.18,1.18,0,0,0-1,1.32,71.12,71.12,0,0,0,2,8A1,1,0,0,0,1507.71,523.94Zm-3.07-16a1.21,1.21,0,0,0,.83.19,1.2,1.2,0,0,0,1.1-1.23c0-.45-.07-.9-.09-1.34a66.33,66.33,0,0,1-.1-6.73,1.06,1.06,0,0,0-1.15-1.07,1.23,1.23,0,0,0-1.22,1.13c-.08,2.22,0,4.55.1,6.93l.09,1.37A1,1,0,0,0,1504.64,508Zm.67-16.39a1.18,1.18,0,0,0,.56.2,1.25,1.25,0,0,0,1.36-1,68.69,68.69,0,0,1,2-8,1,1,0,0,0-.81-1.31,1.29,1.29,0,0,0-1.47.84,70.31,70.31,0,0,0-2,8.22A1,1,0,0,0,1505.31,491.57Zm4.65-16.08a1,1,0,0,0,.38.17,1.26,1.26,0,0,0,1.49-.78c.91-2.62,1.8-5.2,2.63-8a1,1,0,0,0-.83-1.31,1.29,1.29,0,0,0-1.46.85c-.81,2.79-1.69,5.34-2.59,7.93A1,1,0,0,0,1510,475.49Zm4.59-16.08a1.35,1.35,0,0,0,.54.2,1.27,1.27,0,0,0,1.38-1c.53-2.73.92-5.45,1.19-8.3a1.05,1.05,0,0,0-1.08-1.12,1.24,1.24,0,0,0-1.29,1.06,81.81,81.81,0,0,1-1.16,8.1A1,1,0,0,0,1514.55,459.41Zm1.6-16.41a1.15,1.15,0,0,0,.74.2,1.21,1.21,0,0,0,1.19-1.15c0-2.64,0-5.41-.19-8.26a1.08,1.08,0,0,0-1.24-1,1.22,1.22,0,0,0-1.13,1.21c.16,2.8.22,5.54.19,8.13A1,1,0,0,0,1516.15,443Zm-1-16.33a1.2,1.2,0,0,0,.92.18,1.18,1.18,0,0,0,1-1.3,65.86,65.86,0,0,0-1.81-8.06,1.13,1.13,0,0,0-1.45-.7,1.16,1.16,0,0,0-.85,1.38,64,64,0,0,1,1.77,7.83A1,1,0,0,0,1515.18,426.67ZM1510.69,411a1.24,1.24,0,0,0,1.16.12,1.14,1.14,0,0,0,.7-1.45c-1-2.46-2.19-5-3.49-7.46a1.19,1.19,0,0,0-1.58-.44,1.11,1.11,0,0,0-.57,1.49c1.27,2.43,2.42,4.89,3.41,7.3A1.06,1.06,0,0,0,1510.69,411Zm-7.53-14.46a1.25,1.25,0,0,0,1.33,0,1.09,1.09,0,0,0,.46-1.51c-1.43-2.28-3-4.58-4.63-6.85a1.2,1.2,0,0,0-1.63-.23,1.07,1.07,0,0,0-.36,1.53c1.62,2.23,3.15,4.49,4.55,6.73A1,1,0,0,0,1503.16,396.58Zm-9.61-13.29a1.27,1.27,0,0,0,1.44,0,1.08,1.08,0,0,0,.27-1.55c-.71-.86-1.4-1.68-2.07-2.45a1.23,1.23,0,0,0-1.66-.12,1.07,1.07,0,0,0-.23,1.55c.66.76,1.34,1.56,2,2.41A1,1,0,0,0,1493.55,383.29Z"/><polygon class="cls-2" points="202.96 532.31 125.87 550.24 145.64 567.03 202.96 532.31"/><polygon class="cls-3" points="145.64 567.03 140.47 600.96 202.96 532.31 145.64 567.03"/><polygon class="cls-4" points="140.47 600.96 152.94 577.6 202.96 532.31 140.47 600.96"/><polygon class="cls-2" points="202.96 532.31 167.08 603.95 152.94 577.6 202.96 532.31"/><path class="cls-5" d="M49.54,768.94h0c-2,1.07-4.13,2.1-6.28,3.07a.75.75,0,0,1-1-.63,1.27,1.27,0,0,1,.63-1.38c2.11-1,4.19-2,6.18-3a.75.75,0,0,1,1.09.55A1.29,1.29,0,0,1,49.54,768.94Zm6.12-3.48a.74.74,0,0,1-1.08-.48,1.29,1.29,0,0,1,.5-1.45c2-1.25,4-2.57,5.9-3.93a.73.73,0,0,1,1.15.35,1.31,1.31,0,0,1-.42,1.48c-1.92,1.39-4,2.73-6,4ZM37,774.63l-.1,0c-2.08.8-4.24,1.57-6.42,2.29-.47.16-.91-.18-1-.75a1.24,1.24,0,0,1,.72-1.32c2.16-.71,4.29-1.47,6.35-2.27a.77.77,0,0,1,1,.7A1.29,1.29,0,0,1,37,774.63ZM67.36,757a.71.71,0,0,1-1-.34,1.31,1.31,0,0,1,.32-1.5c1.87-1.59,3.69-3.26,5.41-5a.73.73,0,0,1,1.2.1,1.3,1.3,0,0,1-.21,1.51c-1.76,1.76-3.62,3.48-5.54,5.1ZM24.18,778.86l-.17.08c-2.1.58-4.28,1.14-6.48,1.66-.48.11-.89-.27-.93-.85a1.19,1.19,0,0,1,.8-1.26c2.18-.51,4.34-1.07,6.42-1.65.47-.13.9.23.95.81A1.24,1.24,0,0,1,24.18,778.86ZM78,746.36a.7.7,0,0,1-.92-.2,1.27,1.27,0,0,1,.09-1.51c1.63-1.95,3.18-4,4.63-6.08a.77.77,0,0,1,1.22-.21,1.23,1.23,0,0,1,0,1.5c-1.48,2.15-3.08,4.25-4.75,6.25A1,1,0,0,1,78,746.36ZM11.26,781.91A.63.63,0,0,1,11,782c-2.12.41-4.3.8-6.5,1.15-.48.07-.87-.34-.88-.93A1.17,1.17,0,0,1,4.5,781c2.18-.35,4.35-.73,6.45-1.14.48-.09.89.31.91.89A1.28,1.28,0,0,1,11.26,781.91Zm75.58-48.4a.73.73,0,0,1-.8,0,1.2,1.2,0,0,1-.16-1.48c1.27-2.25,2.47-4.62,3.57-7a.85.85,0,0,1,1.18-.53,1.13,1.13,0,0,1,.3,1.42c-1.13,2.49-2.37,4.92-3.68,7.24A1.07,1.07,0,0,1,86.84,733.51Zm6.65-14.63a.67.67,0,0,1-.63,0,1.06,1.06,0,0,1-.42-1.36l.45-1.25c.75-2.17,1.41-4.31,2-6.37a1,1,0,0,1,1.09-.81,1,1,0,0,1,.54,1.28c-.57,2.12-1.25,4.33-2,6.56L94,718.25A1.15,1.15,0,0,1,93.49,718.88Zm4.17-15.66a.78.78,0,0,1-.45.09.94.94,0,0,1-.67-1.17c.41-2.5.69-5,.9-7.91a1.12,1.12,0,0,1,.94-1.1c.47,0,.82.46.78,1-.21,3-.51,5.57-.93,8.16A1.24,1.24,0,0,1,97.66,703.22ZM99,687.15a.94.94,0,0,1-.31.1c-.48,0-.85-.42-.82-1,.1-2.64.22-5.25.44-8.09a1.1,1.1,0,0,1,.94-1.08.87.87,0,0,1,.78,1c-.22,2.79-.33,5.37-.44,8A1.26,1.26,0,0,1,99,687.15Zm1.35-16.07a.72.72,0,0,1-.43.09A.92.92,0,0,1,99.2,670c.4-2.68.9-5.32,1.52-8.07a1,1,0,0,1,1.07-.88,1,1,0,0,1,.59,1.23c-.6,2.69-1.09,5.27-1.48,7.88A1.22,1.22,0,0,1,100.32,671.08Zm3.53-15.85a.72.72,0,0,1-.57.07,1,1,0,0,1-.51-1.3c.72-2.51,1.55-5.14,2.47-7.81a.92.92,0,0,1,1.14-.7,1.07,1.07,0,0,1,.44,1.35c-.9,2.63-1.72,5.21-2.43,7.68A1.21,1.21,0,0,1,103.85,655.23Zm5.29-15.32a.71.71,0,0,1-.69,0,1.12,1.12,0,0,1-.34-1.41c1-2.43,2.23-4.9,3.55-7.33a.82.82,0,0,1,1.21-.41,1.18,1.18,0,0,1,.19,1.46c-1.28,2.36-2.43,4.76-3.44,7.12A1.12,1.12,0,0,1,109.14,639.91Zm7.54-14a.7.7,0,0,1-.84-.1,1.23,1.23,0,0,1-.08-1.5c1.4-2.15,2.93-4.33,4.54-6.46a.76.76,0,0,1,1.22-.14,1.26,1.26,0,0,1,0,1.51c-1.58,2.09-3.07,4.22-4.44,6.33A1.17,1.17,0,0,1,116.68,625.88Zm9.32-12.4a.7.7,0,0,1-.93-.21,1.25,1.25,0,0,1,.11-1.51c1.64-1.91,3.37-3.82,5.15-5.69a.74.74,0,0,1,1.21.07,1.3,1.3,0,0,1-.19,1.52c-1.75,1.83-3.46,3.71-5.06,5.58A1.28,1.28,0,0,1,126,613.48Zm10.45-10.92a.72.72,0,0,1-1-.3,1.3,1.3,0,0,1,.25-1.51c.74-.7,1.45-1.35,2.13-2A.73.73,0,0,1,139,599a1.3,1.3,0,0,1-.28,1.51c-.67.61-1.37,1.25-2.1,1.94A1,1,0,0,1,136.45,602.56Z"/></svg>