<svg id="Layer_1" data-name="Layer 1" xmlns="http://www.w3.org/2000/svg" xmlns:xlink="http://www.w3.org/1999/xlink" viewBox="0 0 1601 1001"><defs><style>.cls-1{stroke:#000;stroke-miterlimit:10;fill:url(#linear-gradient);}.cls-2{fill:url(#linear-gradient-2);}.cls-3{fill:url(#linear-gradient-3);}.cls-4{fill:url(#radial-gradient);}</style><linearGradient id="linear-gradient" x1="0.5" y1="500.5" x2="1600.5" y2="500.5" gradientUnits="userSpaceOnUse"><stop offset="0" stop-color="#a5bdce"/><stop offset="1" stop-color="#4a7b9d"/></linearGradient><linearGradient id="linear-gradient-2" x1="395.97" y1="801.11" x2="1153.43" y2="801.11" gradientUnits="userSpaceOnUse"><stop offset="1" stop-color="#a5bdce"/><stop offset="1" stop-color="#4a7b9d"/></linearGradient><linearGradient id="linear-gradient-3" x1="35.54" y1="438.49" x2="793" y2="438.49" gradientTransform="translate(810.23 636.38) rotate(180)" xlink:href="#linear-gradient-2"/><radialGradient id="radial-gradient" cx="1174.22" cy="682.49" r="375.14" xlink:href="#linear-gradient"/></defs><rect class="cls-1" x="0.5" y="0.5" width="1600" height="1000"/><path class="cls-2" d="M396,999,677.83,642.94c40.63-51.33,117.87-53.21,160.95-3.92l314.65,360Z" transform="translate(0.5 0.5)"/><path class="cls-3" d="M774.7,0,492.84,356.06C452.2,407.39,375,409.27,331.88,360L17.24,0Z" transform="translate(0.5 0.5)"/><path class="cls-4" d="M748.45,999l358.31-569.49c42.14-82.09,122.24-85.1,166.92-6.27L1600,999Z" transform="translate(0.5 0.5)"/></svg>