<svg id="Layer_1" data-name="Layer 1" xmlns="http://www.w3.org/2000/svg" viewBox="0 0 1600 1000"><defs><style>.cls-1{fill:#f0f4f7;}.cls-2{fill:#fff;}.cls-3{fill:#aceafd;}.cls-4{fill:#9ab7be;}.cls-5,.cls-8{fill:#4a7b9d;}.cls-5,.cls-7{opacity:0.48;}.cls-6{fill:#81b0be;}</style></defs><rect class="cls-1" width="1600" height="1000"/><polygon class="cls-2" points="1432.63 297.96 1528.52 334.63 1495.41 346.19 1432.63 297.96"/><polygon class="cls-3" points="1495.41 346.19 1488.82 380.73 1432.63 297.96 1495.41 346.19"/><polygon class="cls-4" points="1488.82 380.73 1481.44 354.74 1432.63 297.96 1488.82 380.73"/><polygon class="cls-2" points="1432.63 297.96 1452.05 377.07 1481.44 354.74 1432.63 297.96"/><path class="cls-5" d="M1543.45,567.91h0c2.28,1.54,4.69,3.08,7.17,4.56a1.29,1.29,0,0,0,1.66-.35,1,1,0,0,0-.29-1.51c-2.44-1.46-4.82-3-7.07-4.5a1.26,1.26,0,0,0-1.66.27A1,1,0,0,0,1543.45,567.91Zm-6.79-4.93a1.27,1.27,0,0,0,1.63-.21,1,1,0,0,0-.08-1.54c-2.21-1.72-4.34-3.51-6.32-5.31a1.26,1.26,0,0,0-1.68.06,1,1,0,0,0,0,1.55c2,1.84,4.19,3.66,6.44,5.41Zm21.3,13.61.12.07c2.45,1.31,5,2.6,7.66,3.84a1.29,1.29,0,0,0,1.62-.49,1,1,0,0,0-.44-1.47c-2.6-1.23-5.15-2.51-7.57-3.8a1.29,1.29,0,0,0-1.64.43A1,1,0,0,0,1558,576.59Zm-33.57-24.8a1.27,1.27,0,0,0,1.5-.08,1.06,1.06,0,0,0,.17-1.55c-1.87-2-3.64-4.11-5.25-6.22a1.21,1.21,0,0,0-1.64-.2,1.05,1.05,0,0,0-.32,1.53,83.12,83.12,0,0,0,5.37,6.37A.8.8,0,0,0,1524.39,551.79Zm49,32.12a1.32,1.32,0,0,0,.2.12c2.58,1.09,5.27,2.18,8,3.23a1.28,1.28,0,0,0,1.58-.6,1,1,0,0,0-.56-1.43c-2.71-1-5.37-2.12-7.92-3.21a1.29,1.29,0,0,0-1.6.56A1,1,0,0,0,1573.39,583.91Zm-58.92-45.18a1.23,1.23,0,0,0,1.31,0,1.1,1.1,0,0,0,.48-1.52,68,68,0,0,1-3.76-7.1,1.18,1.18,0,0,0-1.55-.51,1.12,1.12,0,0,0-.65,1.47,75.14,75.14,0,0,0,3.87,7.3A1,1,0,0,0,1514.47,538.73Zm75,51.37a1.71,1.71,0,0,0,.27.14c2.67.93,5.44,1.85,8.24,2.73a1.29,1.29,0,0,0,1.54-.69,1,1,0,0,0-.66-1.39c-2.77-.88-5.52-1.79-8.17-2.71a1.28,1.28,0,0,0-1.56.65A1,1,0,0,0,1589.45,590.1Zm-81.74-66.16a1.26,1.26,0,0,0,1.08.15,1.16,1.16,0,0,0,.81-1.41,67.45,67.45,0,0,1-2-7.77,1.11,1.11,0,0,0-1.37-.82,1.18,1.18,0,0,0-1,1.32,71.12,71.12,0,0,0,2,8A1,1,0,0,0,1507.71,523.94Zm-3.07-16a1.21,1.21,0,0,0,.83.19,1.2,1.2,0,0,0,1.1-1.23c0-.45-.07-.9-.09-1.34a66.33,66.33,0,0,1-.1-6.73,1.06,1.06,0,0,0-1.15-1.07,1.23,1.23,0,0,0-1.22,1.13c-.08,2.22,0,4.55.1,6.93l.09,1.37A1,1,0,0,0,1504.64,508Zm.67-16.39a1.18,1.18,0,0,0,.56.2,1.25,1.25,0,0,0,1.36-1,68.69,68.69,0,0,1,2-8,1,1,0,0,0-.81-1.31,1.29,1.29,0,0,0-1.47.84,70.31,70.31,0,0,0-2,8.22A1,1,0,0,0,1505.31,491.57Zm4.65-16.08a1,1,0,0,0,.38.17,1.26,1.26,0,0,0,1.49-.78c.91-2.62,1.8-5.2,2.63-8a1,1,0,0,0-.83-1.31,1.29,1.29,0,0,0-1.46.85c-.81,2.79-1.69,5.34-2.59,7.93A1,1,0,0,0,1510,475.49Zm4.59-16.08a1.35,1.35,0,0,0,.54.2,1.27,1.27,0,0,0,1.38-1c.53-2.73.92-5.45,1.19-8.3a1.05,1.05,0,0,0-1.08-1.12,1.24,1.24,0,0,0-1.29,1.06,81.81,81.81,0,0,1-1.16,8.1A1,1,0,0,0,1514.55,459.41Zm1.6-16.41a1.15,1.15,0,0,0,.74.2,1.21,1.21,0,0,0,1.19-1.15c0-2.64,0-5.41-.19-8.26a1.08,1.08,0,0,0-1.24-1,1.22,1.22,0,0,0-1.13,1.21c.16,2.8.22,5.54.19,8.13A1,1,0,0,0,1516.15,443Zm-1-16.33a1.2,1.2,0,0,0,.92.18,1.18,1.18,0,0,0,1-1.3,65.86,65.86,0,0,0-1.81-8.06,1.13,1.13,0,0,0-1.45-.7,1.16,1.16,0,0,0-.85,1.38,64,64,0,0,1,1.77,7.83A1,1,0,0,0,1515.18,426.67ZM1510.69,411a1.24,1.24,0,0,0,1.16.12,1.14,1.14,0,0,0,.7-1.45c-1-2.46-2.19-5-3.49-7.46a1.19,1.19,0,0,0-1.58-.44,1.11,1.11,0,0,0-.57,1.49c1.27,2.43,2.42,4.89,3.41,7.3A1.06,1.06,0,0,0,1510.69,411Zm-7.53-14.46a1.25,1.25,0,0,0,1.33,0,1.09,1.09,0,0,0,.46-1.51c-1.43-2.28-3-4.58-4.63-6.85a1.2,1.2,0,0,0-1.63-.23,1.07,1.07,0,0,0-.36,1.53c1.62,2.23,3.15,4.49,4.55,6.73A1,1,0,0,0,1503.16,396.58Zm-9.61-13.29a1.27,1.27,0,0,0,1.44,0,1.08,1.08,0,0,0,.27-1.55c-.71-.86-1.4-1.68-2.07-2.45a1.23,1.23,0,0,0-1.66-.12,1.07,1.07,0,0,0-.23,1.55c.66.76,1.34,1.56,2,2.41A1,1,0,0,0,1493.55,383.29Z"/><polygon class="cls-2" points="299.1 806.91 223.48 783.55 232.1 808.01 299.1 806.91"/><polygon class="cls-3" points="232.1 808.01 210.53 834.71 299.1 806.91 232.1 808.01"/><polygon class="cls-4" points="210.53 834.71 233.08 820.83 299.1 806.91 210.53 834.71"/><polygon class="cls-2" points="299.1 806.91 232.01 850.71 233.08 820.83 299.1 806.91"/><path class="cls-5" d="M47.34,934h0c-2.29-.1-4.64-.27-7-.51a.76.76,0,0,1-.59-1.07,1.28,1.28,0,0,1,1.24-.88c2.31.24,4.62.41,6.87.5a.75.75,0,0,1,.66,1A1.28,1.28,0,0,1,47.34,934Zm7,.07a.73.73,0,0,1-.69-.95,1.28,1.28,0,0,1,1.16-1c2.37-.06,4.75-.2,7.07-.43a.73.73,0,0,1,.82.89,1.32,1.32,0,0,1-1.1,1.07c-2.37.22-4.79.37-7.22.42Zm-20.75-1.48h-.11c-2.2-.35-4.46-.78-6.7-1.25a.78.78,0,0,1-.48-1.15,1.26,1.26,0,0,1,1.29-.78c2.22.48,4.45.89,6.62,1.24a.76.76,0,0,1,.53,1.11A1.29,1.29,0,0,1,33.63,932.57Zm35.11.08a.72.72,0,0,1-.7-.81,1.32,1.32,0,0,1,1-1.14c2.42-.42,4.83-1,7.18-1.57a.73.73,0,0,1,1,.69,1.3,1.3,0,0,1-.95,1.2c-2.4.63-4.88,1.18-7.35,1.61A.68.68,0,0,1,68.74,932.65Zm-48.31-2.88-.18,0c-2.11-.55-4.28-1.17-6.44-1.83a.81.81,0,0,1-.37-1.21,1.19,1.19,0,0,1,1.32-.68c2.14.65,4.28,1.26,6.38,1.81a.79.79,0,0,1,.41,1.18A1.25,1.25,0,0,1,20.43,929.77Zm62.83-1a.69.69,0,0,1-.7-.63,1.26,1.26,0,0,1,.84-1.26c2.38-.86,4.76-1.85,7.06-2.92a.78.78,0,0,1,1.16.43,1.23,1.23,0,0,1-.73,1.32c-2.36,1.1-4.81,2.11-7.26,3A1,1,0,0,1,83.26,928.79Zm-75.52-2.9a1,1,0,0,1-.24,0c-2-.71-4.12-1.48-6.2-2.29A.82.82,0,0,1,1,922.32a1.15,1.15,0,0,1,1.34-.61c2.06.8,4.13,1.56,6.15,2.26a.82.82,0,0,1,.33,1.23A1.27,1.27,0,0,1,7.74,925.89Zm89.66-3.72a.69.69,0,0,1-.65-.44,1.19,1.19,0,0,1,.59-1.36c2.24-1.3,4.47-2.74,6.63-4.27a.86.86,0,0,1,1.29.13,1.12,1.12,0,0,1-.46,1.38c-2.22,1.58-4.52,3.06-6.82,4.4A1,1,0,0,1,97.4,922.17Zm13.13-9.27a.73.73,0,0,1-.57-.29,1.07,1.07,0,0,1,.32-1.39c.35-.29.69-.57,1-.86,1.74-1.49,3.39-3,4.91-4.51a1,1,0,0,1,1.36-.14,1,1,0,0,1-.18,1.37c-1.57,1.55-3.27,3.11-5.06,4.65l-1,.88A1.21,1.21,0,0,1,110.53,912.9ZM122,901.46a.71.71,0,0,1-.43-.14.93.93,0,0,1,0-1.35c1.61-2,3.12-4,4.76-6.38a1.12,1.12,0,0,1,1.36-.48.87.87,0,0,1,.15,1.3c-1.68,2.47-3.24,4.56-4.91,6.58A1.23,1.23,0,0,1,122,901.46Zm9.23-13.21a.89.89,0,0,1-.32-.08.85.85,0,0,1-.2-1.28c1.42-2.23,2.83-4.42,4.46-6.76a1.11,1.11,0,0,1,1.36-.47.88.88,0,0,1,.14,1.31c-1.6,2.3-3,4.47-4.4,6.67A1.27,1.27,0,0,1,131.25,888.25Zm9.26-13.2a.78.78,0,0,1-.42-.14.93.93,0,0,1,0-1.34c1.7-2.12,3.46-4.15,5.38-6.21a1,1,0,0,1,1.37-.22,1,1,0,0,1-.11,1.36c-1.88,2-3.6,4-5.26,6.06A1.21,1.21,0,0,1,140.51,875.05Zm11-11.91a.75.75,0,0,1-.53-.24,1,1,0,0,1,.22-1.38c1.89-1.8,3.93-3.65,6.06-5.49a.92.92,0,0,1,1.34,0,1.05,1.05,0,0,1-.3,1.38c-2.1,1.82-4.11,3.64-6,5.41A1.27,1.27,0,0,1,151.55,863.14Zm12.29-10.57a.74.74,0,0,1-.61-.34,1.11,1.11,0,0,1,.43-1.38c2.12-1.58,4.39-3.12,6.76-4.55a.81.81,0,0,1,1.24.25,1.16,1.16,0,0,1-.57,1.36c-2.29,1.4-4.49,2.88-6.55,4.42A1.23,1.23,0,0,1,163.84,852.57Zm13.59-8.32a.7.7,0,0,1-.68-.51,1.22,1.22,0,0,1,.69-1.33c2.29-1.16,4.71-2.27,7.17-3.3a.76.76,0,0,1,1.13.5,1.27,1.27,0,0,1-.78,1.29c-2.42,1-4.78,2.1-7,3.23A1.18,1.18,0,0,1,177.43,844.25Zm14.3-6a.72.72,0,0,1-.71-.65,1.29,1.29,0,0,1,.86-1.26c2.38-.82,4.84-1.6,7.32-2.31a.74.74,0,0,1,1,.67,1.28,1.28,0,0,1-.93,1.21c-2.44.7-4.86,1.47-7.19,2.28A1.23,1.23,0,0,1,191.73,838.24Zm14.52-4.17a.72.72,0,0,1-.71-.76,1.33,1.33,0,0,1,1-1.18l2.82-.62a.72.72,0,0,1,.94.75,1.32,1.32,0,0,1-1,1.17c-.88.18-1.81.39-2.79.61A1.07,1.07,0,0,1,206.25,834.07Z"/><polygon class="cls-2" points="847.5 805.38 848.92 878.36 864.54 860.9 847.5 805.38"/><polygon class="cls-3" points="864.54 860.9 889.95 866.88 847.5 805.38 864.54 860.9"/><polygon class="cls-6" points="889.95 866.88 873.28 853.77 847.5 805.38 889.95 866.88"/><polygon class="cls-2" points="847.5 805.38 896.97 842.37 873.28 853.77 847.5 805.38"/><g class="cls-7"><path class="cls-8" d="M851,998.39a1,1,0,0,1-.63.55c-1.23.34-2.45.64-3.64.88a1,1,0,0,1-1.15-.76,1,1,0,0,1,.77-1.16c1.13-.23,2.31-.51,3.49-.85a1,1,0,0,1,1.21.68A1,1,0,0,1,851,998.39Z"/><path class="cls-8" d="M889.47,965.54a1,1,0,0,1-1.82-.72c.31-.88.58-1.77.82-2.66a43,43,0,0,0,.89-4.41,1,1,0,0,1,1.11-.83,1,1,0,0,1,.83,1.11,44.65,44.65,0,0,1-.94,4.63c-.24.93-.53,1.88-.86,2.81Zm-3.17,6.75a.37.37,0,0,1,0,.11,48.45,48.45,0,0,1-4.4,6.23,1,1,0,0,1-1.38.12,1,1,0,0,1-.13-1.37,45.84,45.84,0,0,0,4.22-6,1,1,0,0,1,1.34-.35A1,1,0,0,1,886.3,972.29Zm5.37-21.46a1,1,0,0,1-.88.58,1,1,0,0,1-1-.95c0-1.18-.11-2.36-.23-3.54-.62.75-1.24,1.48-1.88,2.19a1,1,0,0,1-1.39.07,1,1,0,0,1-.07-1.38q1.54-1.71,3-3.56c-.06-.35-.12-.7-.19-1a1,1,0,0,1,.78-1.14,1,1,0,0,1,.85.24l.18-.25a1,1,0,0,1,1.36-.24,1,1,0,0,1,.24,1.37c-.38.53-.76,1.06-1.16,1.59a46.67,46.67,0,0,1,.5,5.65A1.16,1.16,0,0,1,891.67,950.83Zm-14.84,33a1,1,0,0,1-.23.33,64.66,64.66,0,0,1-5.89,4.79,1,1,0,0,1-1.14-1.58,65.47,65.47,0,0,0,5.7-4.65,1,1,0,0,1,1.38.06A1,1,0,0,1,876.83,983.8Zm21-50.18c-.45,1-.94,2-1.48,3.06a1,1,0,1,1-1.73-.91c.51-1,1-2,1.4-2.91.56-1.26,1.06-2.54,1.5-3.81a1,1,0,1,1,1.85.64C898.94,931,898.42,932.33,897.86,933.62Zm3.5-11.06a1,1,0,0,1-1.1.57,1,1,0,0,1-.76-1.16,57.81,57.81,0,0,0,1-7.27,1,1,0,1,1,2,.14,59.69,59.69,0,0,1-1,7.52Zm-18.88,31.49a1,1,0,0,1-.27.36,44.65,44.65,0,0,1-6.23,4.41,1,1,0,0,1-1-1.7,42.13,42.13,0,0,0,6-4.21,1,1,0,0,1,1.53,1.14Zm20-46.36a1,1,0,0,1-1.88-.35,66.14,66.14,0,0,0-.73-7.33,1,1,0,0,1,1.94-.3,70.23,70.23,0,0,1,.75,7.54A.91.91,0,0,1,902.48,907.69Zm-37.73,84.87a.93.93,0,0,1-.42.46,66.94,66.94,0,0,1-6.79,3.37,1,1,0,0,1-.77-1.8,67.38,67.38,0,0,0,6.6-3.27,1,1,0,0,1,1.38,1.24Zm24.1-56.35a1,1,0,0,1-1.81-.06,43.33,43.33,0,0,0-3.1-6.6,1,1,0,0,1,1.69-1,44.2,44.2,0,0,1,3.24,6.92A1,1,0,0,1,888.85,936.21Zm11.39-43.28a1,1,0,0,1-1.84-.16c-.6-2.35-1.32-4.73-2.15-7.07a1,1,0,0,1,1.85-.65c.84,2.39,1.58,4.83,2.2,7.24A1,1,0,0,1,900.24,892.93ZM869.57,961.4a1,1,0,0,1-.61.54,28,28,0,0,1-7.6,1.29,1,1,0,1,1-.05-2,26.14,26.14,0,0,0,7.07-1.2,1,1,0,0,1,1.23.64A1,1,0,0,1,869.57,961.4Zm11.78-38a.94.94,0,0,1-.26.34,1,1,0,0,1-1.38-.09,32.63,32.63,0,0,0-5.32-4.91,1,1,0,0,1-.22-1.36,1,1,0,0,1,1.37-.22,34.41,34.41,0,0,1,5.65,5.2A1,1,0,0,1,881.35,923.37Zm-26.51,38.41a1,1,0,0,1-1.14.55,30.54,30.54,0,0,1-4.58-1.58c-.88-.38-1.75-.82-2.58-1.28a1,1,0,0,1,1-1.71c.77.43,1.58.84,2.4,1.2a29.33,29.33,0,0,0,4.29,1.48,1,1,0,0,1,.7,1.19A.88.88,0,0,1,854.84,961.78Zm14.46-47a1,1,0,0,1-1.23.53,23.37,23.37,0,0,0-7-1.45,1,1,0,1,1,.09-2,25.29,25.29,0,0,1,7.59,1.56,1,1,0,0,1,.57,1.26S869.31,914.75,869.3,914.77ZM842,954.5a.75.75,0,0,1-.21.3,1,1,0,0,1-1.38,0,26,26,0,0,1-4.57-6.24,1,1,0,1,1,1.73-.91,24.28,24.28,0,0,0,4.23,5.77A1,1,0,0,1,842,954.5ZM854.59,914a1,1,0,0,1-.67.56,29.41,29.41,0,0,0-6.76,2.52,1,1,0,0,1-.91-1.74,31.34,31.34,0,0,1,7.22-2.68,1,1,0,0,1,1.18.73A.91.91,0,0,1,854.59,914Zm-19.41,27.45a1,1,0,0,1-.72.57,1,1,0,0,1-1.14-.8,25.64,25.64,0,0,1-.16-7.73,1,1,0,1,1,1.94.25,23.77,23.77,0,0,0,.15,7.15A.9.9,0,0,1,835.18,941.45Zm6.32-20.56a.87.87,0,0,1-.22.32,19.75,19.75,0,0,0-4.25,5.67,1,1,0,0,1-1.76-.86,21.85,21.85,0,0,1,4.66-6.23,1,1,0,0,1,1.39,0A1,1,0,0,1,841.5,920.89Z"/><path class="cls-8" d="M895.25,878.8a1,1,0,0,1-.49.5,1,1,0,0,1-1.3-.48c-.53-1.15-1.05-2.21-1.6-3.25a1,1,0,0,1,1.73-.91c.57,1.07,1.11,2.16,1.65,3.34A1,1,0,0,1,895.25,878.8Z"/></g></svg>