<svg id="Layer_1" data-name="Layer 1" xmlns="http://www.w3.org/2000/svg" viewBox="0 0 467.6 467.64"><defs><style>.cls-1{fill:#4a7b9d;}.cls-2{fill:#c7c9cb;}.cls-3{fill:#f0f7ee;}.cls-4{fill:#454c53;}.cls-5{fill:#73797e;}</style></defs><path class="cls-1" d="M931.17,780.36C808.49,820.59,741.69,952.65,781.9,1075.29s172.27,189.53,294.95,149.3,189.48-172.29,149.25-295S1053.85,740.12,931.17,780.36ZM1019.92,1051a51.08,51.08,0,1,1,32.64-64.48A51.08,51.08,0,0,1,1019.92,1051Z" transform="translate(-770.2 -768.65)"/><path class="cls-2" d="M933.73,788.17c-100.28,32.89-161.86,129.38-154.7,230A226,226,0,0,0,813.41,1123c53.85,85.4,160.63,126.62,260.87,93.75,118.35-38.81,182.82-166.21,144-284.59S1052.07,749.37,933.73,788.17ZM1019.92,1051a51.08,51.08,0,1,1,32.64-64.48A51.08,51.08,0,0,1,1019.92,1051Z" transform="translate(-770.2 -768.65)"/><path class="cls-3" d="M953.3,1019.08,813.41,1123A226,226,0,0,1,779,1018.21Z" transform="translate(-770.2 -768.65)"/><path class="cls-3" d="M1054.71,985.82l174.27.92a226.19,226.19,0,0,0-34.36-104.82Z" transform="translate(-770.2 -768.65)"/><path class="cls-4" d="M980.26,930a76.22,76.22,0,1,0,96.18,48.68A76.22,76.22,0,0,0,980.26,930Zm39.48,120.41A50.49,50.49,0,1,1,1052,986.74,50.49,50.49,0,0,1,1019.74,1050.45Z" transform="translate(-770.2 -768.65)"/><path class="cls-5" d="M1004,951.77a50.71,50.71,0,1,0,50.7,50.7A50.7,50.7,0,0,0,1004,951.77Zm0,74.7a24,24,0,1,1,24-24A24,24,0,0,1,1004,1026.47Z" transform="translate(-770.2 -768.65)"/></svg>