<svg id="Layer_1" data-name="Layer 1" xmlns="http://www.w3.org/2000/svg" viewBox="0 0 508.05 419.48"><defs><style>.cls-1{fill:#4a7b9d;}.cls-2{fill:#b1b4b5;}.cls-3{fill:#ecf0f1;}.cls-4{fill:#f0f7ee;}</style></defs><path class="cls-1" d="M1254,1186.85c0,21.76-17.17,39.57-38.17,39.57H784.15c-21,0-38.17-17.81-38.17-39.57V846.5c0-21.76,17.17-39.57,38.17-39.57h431.7c21,0,38.17,17.81,38.17,39.57Z" transform="translate(-745.98 -806.93)"/><path class="cls-2" d="M1243.51,1175.47c0,20.6-16.47,37.46-36.59,37.46H793.08c-20.12,0-36.59-16.86-36.59-37.46V853.32c0-20.6,16.47-37.46,36.59-37.46h413.84c20.12,0,36.59,16.86,36.59,37.46Z" transform="translate(-745.98 -806.93)"/><path class="cls-3" d="M1243.51,1166.32a36.71,36.71,0,0,1-36.59,36.6H793.08a36.71,36.71,0,0,1-36.59-36.6V851.61A36.7,36.7,0,0,1,793.08,815h413.84a36.7,36.7,0,0,1,36.59,36.59Z" transform="translate(-745.98 -806.93)"/><path class="cls-4" d="M1243.51,1166.32a36.71,36.71,0,0,1-36.59,36.6H793.08a36.71,36.71,0,0,1-36.59-36.6V851.61A36.7,36.7,0,0,1,793.08,815h413.84a36.7,36.7,0,0,1,36.59,36.59Z" transform="translate(-745.98 -806.93)"/><path class="cls-1" d="M832.71,1139.56c0,8.79-5.1,16-11.34,16s-11.34-7.2-11.34-16V851c0-8.79,5.1-16,11.34-16s11.34,7.2,11.34,16Z" transform="translate(-745.98 -806.93)"/><path class="cls-1" d="M953.43,1139.56c0,8.79-5.11,16-11.35,16s-11.34-7.2-11.34-16V851c0-8.79,5.11-16,11.34-16s11.35,7.2,11.35,16Z" transform="translate(-745.98 -806.93)"/><path class="cls-1" d="M1075.26,1139.56c0,8.79-5.11,16-11.34,16s-11.35-7.2-11.35-16V851c0-8.79,5.11-16,11.35-16s11.34,7.2,11.34,16Z" transform="translate(-745.98 -806.93)"/><path class="cls-1" d="M1195.33,1140.16c0,8.8-5.11,16-11.35,16s-11.34-7.19-11.34-16V851.56c0-8.79,5.1-16,11.34-16s11.35,7.2,11.35,16Z" transform="translate(-745.98 -806.93)"/><path class="cls-1" d="M865.81,979.49c0,9.79-9.49,17.79-21.09,17.79H798c-11.6,0-21.09-8-21.09-17.79s9.49-17.78,21.09-17.78h46.7C856.32,961.71,865.81,969.72,865.81,979.49Z" transform="translate(-745.98 -806.93)"/><path class="cls-1" d="M986.53,1111.61c0,9.79-9.49,17.79-21.09,17.79H918.73c-11.6,0-21.09-8-21.09-17.79s9.49-17.78,21.09-17.78h46.71C977,1093.83,986.53,1101.83,986.53,1111.61Z" transform="translate(-745.98 -806.93)"/><path class="cls-1" d="M1108.36,1058.26c0,9.78-9.5,17.79-21.09,17.79h-46.71c-11.6,0-21.09-8-21.09-17.79s9.49-17.79,21.09-17.79h46.71C1098.86,1040.47,1108.36,1048.48,1108.36,1058.26Z" transform="translate(-745.98 -806.93)"/><path class="cls-1" d="M1228.43,966.4c0,9.78-9.5,17.78-21.1,17.78h-46.7c-11.6,0-21.09-8-21.09-17.78s9.49-17.79,21.09-17.79h46.7C1218.93,948.61,1228.43,956.61,1228.43,966.4Z" transform="translate(-745.98 -806.93)"/></svg>