<svg id="Layer_1" data-name="Layer 1" xmlns="http://www.w3.org/2000/svg" viewBox="0 0 562.75 469"><defs><style>.cls-1{fill:#afdedc;}.cls-2{fill:#161f28;}.cls-3{fill:#454c53;}.cls-4{fill:#4a7b9d;}</style></defs><path class="cls-1" d="M786.58,1049.05a256,256,0,0,1-1.88-30.55C784.7,895,891.34,799.68,1000,799.68S1215.3,895,1215.3,1018.5a256,256,0,0,1-1.88,30.55H1253c1-10,1.53-20.22,1.53-30.55,0-148.12-124.21-253-254.54-253s-254.54,104.88-254.54,253c0,10.33.53,20.52,1.53,30.55Z" transform="translate(-718.62 -765.5)"/><path class="cls-2" d="M1281.38,1191.09a8.8,8.8,0,0,1-8.93,8.6h-44.74a8.79,8.79,0,0,1-8.92-8.6V1065.25a8.79,8.79,0,0,1,8.92-8.6h44.74a8.8,8.8,0,0,1,8.93,8.6Z" transform="translate(-718.62 -765.5)"/><path class="cls-2" d="M781.21,1191.09a8.79,8.79,0,0,1-8.92,8.6H727.55a8.8,8.8,0,0,1-8.93-8.6V1065.25a8.8,8.8,0,0,1,8.93-8.6h44.74a8.79,8.79,0,0,1,8.92,8.6Z" transform="translate(-718.62 -765.5)"/><path class="cls-3" d="M1211.79,1200a34.59,34.59,0,0,1-34.49,34.48h-12.52a34.59,34.59,0,0,1-34.49-34.48v-143.7a34.58,34.58,0,0,1,34.49-34.48h12.52a34.58,34.58,0,0,1,34.49,34.48Z" transform="translate(-718.62 -765.5)"/><path class="cls-3" d="M103.9,256.34h12.52a34.49,34.49,0,0,1,34.49,34.49V434.52A34.48,34.48,0,0,1,116.43,469H103.9a34.49,34.49,0,0,1-34.49-34.49V290.82A34.49,34.49,0,0,1,103.9,256.34Z"/><path class="cls-4" d="M788.39,1038.93H743.65c-4.91,0-8.92,4.83-8.92,10.73v157c0,5.9,4,10.73,8.92,10.73h7.18v4.91a5.46,5.46,0,0,0,5.44,5.44h19.5a5.46,5.46,0,0,0,5.44-5.44v-4.91h7.18c4.91,0,8.92-4.83,8.92-10.73v-157C797.31,1043.76,793.3,1038.93,788.39,1038.93Z" transform="translate(-718.62 -765.5)"/><path class="cls-4" d="M1256.35,1038.93h-44.74c-4.91,0-8.92,4.83-8.92,10.73v157c0,5.9,4,10.73,8.92,10.73h7.18v4.91a5.46,5.46,0,0,0,5.44,5.44h19.5a5.46,5.46,0,0,0,5.44-5.44v-4.91h7.18c4.91,0,8.92-4.83,8.92-10.73v-157C1265.27,1043.76,1261.26,1038.93,1256.35,1038.93Z" transform="translate(-718.62 -765.5)"/></svg>