<svg id="Layer_1" data-name="Layer 1" xmlns="http://www.w3.org/2000/svg" viewBox="0 0 351.75 649.85"><defs><style>.cls-1{fill:#161f28;}.cls-2{fill:#4a7b9d;}.cls-3{fill:#ecf0f1;}.cls-4{fill:#afdedc;}.cls-5{fill:#f0f7ee;}.cls-6{fill:#454c53;}</style></defs><path class="cls-1" d="M1212.9,1245.1a43.46,43.46,0,0,1-43.32,43.32H904.47a43.45,43.45,0,0,1-43.32-43.32V693.72a43.45,43.45,0,0,1,43.32-43.32h265.11a43.46,43.46,0,0,1,43.32,43.32Z" transform="translate(-861.15 -638.57)"/><path class="cls-2" d="M1212.9,681.92v551.39a43.46,43.46,0,0,1-38,43,46.79,46.79,0,0,1-5.33.33H904.5a43.43,43.43,0,0,1-43.35-43.28V681.92a43.49,43.49,0,0,1,43.35-43.35h265.11A43.48,43.48,0,0,1,1212.9,681.92Z" transform="translate(-861.15 -638.57)"/><path class="cls-1" d="M1103.61,666v10.32a3.46,3.46,0,0,1-3.44,3.43H973.88a3.46,3.46,0,0,1-3.44-3.43V666a3.4,3.4,0,0,1,3.44-3.37h126.29A3.4,3.4,0,0,1,1103.61,666Z" transform="translate(-861.15 -638.57)"/><path class="cls-3" d="M1146.79,1096.53A109.77,109.77,0,1,1,1037,986.76,109.76,109.76,0,0,1,1146.79,1096.53Z" transform="translate(-861.15 -638.57)"/><path class="cls-4" d="M1097.05,1096.53a60,60,0,1,1-60-60A60,60,0,0,1,1097.05,1096.53Z" transform="translate(-861.15 -638.57)"/><path class="cls-5" d="M1185.45,713.34V898.28a16.5,16.5,0,0,1-16.38,16.46H905a16.51,16.51,0,0,1-16.39-16.46V713.34A16.51,16.51,0,0,1,905,696.89h264.09A16.5,16.5,0,0,1,1185.45,713.34Z" transform="translate(-861.15 -638.57)"/><rect class="cls-6" x="48.23" y="254.55" width="256.77" height="6.74"/><path class="cls-6" d="M972.31,896.48a7.87,7.87,0,1,1-7.87-7.86A7.87,7.87,0,0,1,972.31,896.48Z" transform="translate(-861.15 -638.57)"/></svg>