<svg id="Layer_1" data-name="Layer 1" xmlns="http://www.w3.org/2000/svg" viewBox="0 0 210.5 388.9"><defs><style>.cls-1{fill:#161f28;}.cls-2{fill:#4a7b9d;}.cls-3{fill:#ecf0f1;}.cls-4{fill:#afdedc;}.cls-5{fill:#f0f7ee;}.cls-6{fill:#454c53;}</style></defs><path class="cls-1" d="M25.93,7.08H184.57A25.93,25.93,0,0,1,210.5,33V363a25.93,25.93,0,0,1-25.93,25.93H25.92A25.92,25.92,0,0,1,0,363V33A25.93,25.93,0,0,1,25.93,7.08Z"/><path class="cls-2" d="M1128.36,738.23v330a26,26,0,0,1-22.72,25.7,27.7,27.7,0,0,1-3.18.2H943.8a26,26,0,0,1-25.94-25.9v-330a26,26,0,0,1,25.94-25.94h158.66A26,26,0,0,1,1128.36,738.23Z" transform="translate(-917.86 -712.29)"/><path class="cls-1" d="M1063,728.71v6.18a2.07,2.07,0,0,1-2.06,2.05H985.32a2.07,2.07,0,0,1-2.06-2.05v-6.18a2,2,0,0,1,2.06-2h75.58A2,2,0,0,1,1063,728.71Z" transform="translate(-917.86 -712.29)"/><path class="cls-3" d="M1088.8,986.35a65.69,65.69,0,1,1-65.69-65.69A65.69,65.69,0,0,1,1088.8,986.35Z" transform="translate(-917.86 -712.29)"/><path class="cls-4" d="M1059,986.35a35.92,35.92,0,1,1-35.92-35.92A35.93,35.93,0,0,1,1059,986.35Z" transform="translate(-917.86 -712.29)"/><path class="cls-5" d="M1111.94,757V867.71a9.88,9.88,0,0,1-9.81,9.85h-158a9.88,9.88,0,0,1-9.81-9.85V757a9.88,9.88,0,0,1,9.81-9.85h158A9.88,9.88,0,0,1,1111.94,757Z" transform="translate(-917.86 -712.29)"/><rect class="cls-6" x="28.86" y="152.33" width="153.66" height="4.04"/><path class="cls-6" d="M984.38,866.64a4.71,4.71,0,1,1-4.71-4.71A4.7,4.7,0,0,1,984.38,866.64Z" transform="translate(-917.86 -712.29)"/></svg>