<svg id="Layer_1" data-name="Layer 1" xmlns="http://www.w3.org/2000/svg" viewBox="0 0 562.76 435.8"><defs><style>.cls-1{fill:#afdedc;}.cls-2{fill:#666;}.cls-3{fill:#4a7b9d;}.cls-4{fill:#b1b4b5;}.cls-5{fill:#ecf0f1;}.cls-6{fill:#161f28;}</style></defs><path class="cls-1" d="M818.86,745.45a3,3,0,0,1-1.75-3.78l.76-2.08a2.94,2.94,0,0,1,3.77-1.75L1201,877.21a3,3,0,0,1,1.74,3.78l-.76,2.07a3,3,0,0,1-3.78,1.75Z" transform="translate(-715.63 -737.66)"/><rect class="cls-2" x="203.91" y="381.33" width="30.92" height="20.61"/><rect class="cls-2" x="244.89" y="381.33" width="30.92" height="20.61"/><path class="cls-3" d="M1014.68,877.54H733.3a17.7,17.7,0,0,0-17.67,17.66v260.59a17.72,17.72,0,0,0,17.67,17.67h527.42a17.72,17.72,0,0,0,17.67-17.67V895.2a17.7,17.7,0,0,0-17.67-17.66Z" transform="translate(-715.63 -737.66)"/><path class="cls-4" d="M1008.78,1007.83H924.69a11.81,11.81,0,0,0-11.78,11.78v63.55a11.81,11.81,0,0,0,11.78,11.78h144.63a11.81,11.81,0,0,0,11.78-11.78v-63.55a11.81,11.81,0,0,0-11.78-11.78Z" transform="translate(-715.63 -737.66)"/><rect class="cls-5" x="312.09" y="381.33" width="27.76" height="20.61" rx="5.89"/><path class="cls-5" d="M1058.4,1133.71a5.9,5.9,0,0,0,5.88,5.89h16a5.91,5.91,0,0,0,5.89-5.89v-8.83a5.91,5.91,0,0,0-5.89-5.89h-16a5.9,5.9,0,0,0-5.88,5.89Z" transform="translate(-715.63 -737.66)"/><rect class="cls-5" x="281.38" y="381.33" width="27.76" height="20.61" rx="5.89"/><path class="cls-5" d="M966.38,1133.71a5.91,5.91,0,0,0,5.89,5.89h16a5.9,5.9,0,0,0,5.88-5.89v-8.83a5.9,5.9,0,0,0-5.88-5.89h-16a5.91,5.91,0,0,0-5.89,5.89Z" transform="translate(-715.63 -737.66)"/><path class="cls-5" d="M935.61,1133.71a5.91,5.91,0,0,0,5.89,5.89h16a5.9,5.9,0,0,0,5.88-5.89v-8.83a5.9,5.9,0,0,0-5.88-5.89h-16a5.91,5.91,0,0,0-5.89,5.89Z" transform="translate(-715.63 -737.66)"/><path class="cls-5" d="M904.74,1133.71a5.91,5.91,0,0,0,5.89,5.89h16a5.91,5.91,0,0,0,5.89-5.89v-8.83a5.91,5.91,0,0,0-5.89-5.89h-16a5.91,5.91,0,0,0-5.89,5.89Z" transform="translate(-715.63 -737.66)"/><path class="cls-5" d="M1000,1099.11H915.93A5.91,5.91,0,0,0,910,1105v4.42a5.9,5.9,0,0,0,5.89,5.88h156.41a5.9,5.9,0,0,0,5.89-5.88V1105a5.91,5.91,0,0,0-5.89-5.89Z" transform="translate(-715.63 -737.66)"/><path class="cls-1" d="M1008.78,907H762a11.81,11.81,0,0,0-11.78,11.78V937.9A11.81,11.81,0,0,0,762,949.68h470a11.81,11.81,0,0,0,11.78-11.78V918.76A11.82,11.82,0,0,0,1232,907Z" transform="translate(-715.63 -737.66)"/><path class="cls-5" d="M1091.41,1068.19a81,81,0,1,0,81-81A81,81,0,0,0,1091.41,1068.19Z" transform="translate(-715.63 -737.66)"/><path class="cls-6" d="M1101.71,1068.19a70.67,70.67,0,1,0,70.67-70.67A70.67,70.67,0,0,0,1101.71,1068.19Z" transform="translate(-715.63 -737.66)"/><path class="cls-5" d="M902.61,1068.19a81,81,0,1,1-81-81A81,81,0,0,1,902.61,1068.19Z" transform="translate(-715.63 -737.66)"/><path class="cls-6" d="M892.3,1068.19a70.67,70.67,0,1,1-70.67-70.67h0A70.67,70.67,0,0,1,892.3,1068.19Z" transform="translate(-715.63 -737.66)"/></svg>