<svg id="Layer_1" data-name="Layer 1" xmlns="http://www.w3.org/2000/svg" viewBox="0 0 507.17 302.42"><defs><style>.cls-1{fill:#161f28;}.cls-2{fill:#4a7b9d;}.cls-3{fill:#afdedc;}.cls-4{fill:#f0f7ee;}.cls-5{fill:#ecf0f1;}</style></defs><path class="cls-1" d="M20.17,12.29H487a20.16,20.16,0,0,1,20.16,20.16V282.26A20.16,20.16,0,0,1,487,302.42H20.17A20.17,20.17,0,0,1,0,282.26V32.45A20.17,20.17,0,0,1,20.17,12.29Z"/><path class="cls-2" d="M1250.78,877.87v249.81a20.19,20.19,0,0,1-20.18,20.13h-27.31a12.78,12.78,0,0,0,.4-3.36V1129c0-6.45-3.53-11.72-7.77-11.72H798.64c-4.24,0-7.77,5.27-7.77,11.72v15.48a12.38,12.38,0,0,0,.41,3.36H763.79a20.18,20.18,0,0,1-20.18-20.13V877.87a20.23,20.23,0,0,1,20.18-20.18H1230.6A20.23,20.23,0,0,1,1250.78,877.87Z" transform="translate(-743.61 -857.69)"/><path class="cls-3" d="M51.31,20.32H455.86a12.61,12.61,0,0,1,12.61,12.61V206.74a12.62,12.62,0,0,1-12.62,12.62H51.31A12.61,12.61,0,0,1,38.7,206.75V32.94A12.61,12.61,0,0,1,51.31,20.32Z"/><path class="cls-1" d="M1203.67,1030.8a12.65,12.65,0,0,1-12.61,12.61H803.5a12.65,12.65,0,0,1-12.61-12.61V961.41A12.65,12.65,0,0,1,803.5,948.8h387.56a12.64,12.64,0,0,1,12.61,12.61Z" transform="translate(-743.61 -857.69)"/><path class="cls-4" d="M1099.38,957.46a38.3,38.3,0,1,0,38.29,38.29A38.29,38.29,0,0,0,1099.38,957.46Zm0,61.79a23.49,23.49,0,1,1,23.49-23.5A23.5,23.5,0,0,1,1099.38,1019.25Z" transform="translate(-743.61 -857.69)"/><path class="cls-4" d="M900.48,957.46a38.3,38.3,0,1,0,38.3,38.29A38.29,38.29,0,0,0,900.48,957.46Zm0,61.79a23.49,23.49,0,1,1,23.5-23.5A23.5,23.5,0,0,1,900.48,1019.25Z" transform="translate(-743.61 -857.69)"/><path class="cls-1" d="M1203.67,931.23a7.78,7.78,0,0,1-7.76,7.75H798.65a7.78,7.78,0,0,1-7.76-7.75V921a7.78,7.78,0,0,1,7.76-7.76h397.26a7.78,7.78,0,0,1,7.76,7.76Z" transform="translate(-743.61 -857.69)"/><path class="cls-1" d="M1203.67,1059.17c0,1.39-1.54,2.51-3.42,2.51H794.56c-1.88,0-3.42-1.12-3.42-2.51s1.54-2.5,3.42-2.5h405.69C1202.13,1056.67,1203.67,1057.8,1203.67,1059.17Z" transform="translate(-743.61 -857.69)"/><path class="cls-1" d="M1203.67,905.67c0,1.38-1.54,2.51-3.42,2.51H794.56c-1.88,0-3.42-1.13-3.42-2.51s1.54-2.51,3.42-2.51h405.69C1202.13,903.16,1203.67,904.29,1203.67,905.67Z" transform="translate(-743.61 -857.69)"/><path class="cls-1" d="M1203.67,897.27c0,1.38-1.54,2.5-3.42,2.5H794.56c-1.88,0-3.42-1.12-3.42-2.5s1.54-2.51,3.42-2.51h405.69C1202.13,894.76,1203.67,895.89,1203.67,897.27Z" transform="translate(-743.61 -857.69)"/><path class="cls-5" d="M903.29,972.27a2.84,2.84,0,1,1-2.81-2.37A2.63,2.63,0,0,1,903.29,972.27Z" transform="translate(-743.61 -857.69)"/><path class="cls-5" d="M903.29,1019.25a2.84,2.84,0,1,1-2.81-2.37A2.63,2.63,0,0,1,903.29,1019.25Z" transform="translate(-743.61 -857.69)"/><path class="cls-5" d="M879.79,995.75a2.84,2.84,0,1,1-2.8-2.36A2.61,2.61,0,0,1,879.79,995.75Z" transform="translate(-743.61 -857.69)"/><path class="cls-5" d="M884.78,982.35a2.85,2.85,0,1,1-.52-3.63A2.62,2.62,0,0,1,884.78,982.35Z" transform="translate(-743.61 -857.69)"/><path class="cls-5" d="M918,1015.49a2.85,2.85,0,1,1-.52-3.63A2.61,2.61,0,0,1,918,1015.49Z" transform="translate(-743.61 -857.69)"/><path class="cls-5" d="M887.54,1011.76a2.85,2.85,0,1,0-.53,3.63A2.62,2.62,0,0,0,887.54,1011.76Z" transform="translate(-743.61 -857.69)"/><path class="cls-5" d="M920.74,978.56a2.85,2.85,0,1,0-.52,3.63A2.62,2.62,0,0,0,920.74,978.56Z" transform="translate(-743.61 -857.69)"/><path class="cls-5" d="M1102.18,972.27a2.84,2.84,0,1,1-2.8-2.37A2.62,2.62,0,0,1,1102.18,972.27Z" transform="translate(-743.61 -857.69)"/><path class="cls-5" d="M1102.18,1019.25a2.84,2.84,0,1,1-2.8-2.37A2.62,2.62,0,0,1,1102.18,1019.25Z" transform="translate(-743.61 -857.69)"/><path class="cls-5" d="M1078.69,995.75a2.84,2.84,0,1,1-2.8-2.36A2.61,2.61,0,0,1,1078.69,995.75Z" transform="translate(-743.61 -857.69)"/><path class="cls-5" d="M1083.67,982.35a2.85,2.85,0,0,1-4.19-3.73,2.85,2.85,0,0,1,4.19,3.73Z" transform="translate(-743.61 -857.69)"/><path class="cls-5" d="M1116.9,1015.49a2.85,2.85,0,1,1-.52-3.63A2.62,2.62,0,0,1,1116.9,1015.49Z" transform="translate(-743.61 -857.69)"/><path class="cls-5" d="M1086.43,1011.76a2.85,2.85,0,1,0-.52,3.63A2.61,2.61,0,0,0,1086.43,1011.76Z" transform="translate(-743.61 -857.69)"/><path class="cls-5" d="M1119.63,978.56a2.85,2.85,0,1,0-.52,3.63A2.61,2.61,0,0,0,1119.63,978.56Z" transform="translate(-743.61 -857.69)"/><path class="cls-5" d="M1125.67,996.11a2.84,2.84,0,1,1-2.8-2.37A2.62,2.62,0,0,1,1125.67,996.11Z" transform="translate(-743.61 -857.69)"/><path class="cls-5" d="M926.78,996.11a2.84,2.84,0,1,1-2.8-2.37A2.62,2.62,0,0,1,926.78,996.11Z" transform="translate(-743.61 -857.69)"/></svg>