<svg id="Layer_1" data-name="Layer 1" xmlns="http://www.w3.org/2000/svg" viewBox="0 0 255.38 471.82"><defs><style>.cls-1{fill:#161f28;}.cls-2{fill:#4a7b9d;}.cls-3{fill:#ecf0f1;}.cls-4{fill:#afdedc;}.cls-5{fill:#f0f7ee;}.cls-6{fill:#454c53;}</style></defs><rect class="cls-1" y="8.59" width="255.38" height="463.22" rx="31.45"/><path class="cls-2" d="M1196.23,766.63V1167a31.55,31.55,0,0,1-27.56,31.18,33,33,0,0,1-3.87.25H972.32A31.53,31.53,0,0,1,940.85,1167V766.63a31.58,31.58,0,0,1,31.47-31.48H1164.8A31.57,31.57,0,0,1,1196.23,766.63Z" transform="translate(-940.85 -735.15)"/><path class="cls-1" d="M1116.88,755.08v7.49a2.51,2.51,0,0,1-2.5,2.5h-91.69a2.51,2.51,0,0,1-2.5-2.5v-7.49a2.47,2.47,0,0,1,2.5-2.45h91.69A2.47,2.47,0,0,1,1116.88,755.08Z" transform="translate(-940.85 -735.15)"/><path class="cls-3" d="M1148.23,1067.65A79.7,79.7,0,1,1,1068.54,988,79.69,79.69,0,0,1,1148.23,1067.65Z" transform="translate(-940.85 -735.15)"/><path class="cls-4" d="M1112.12,1067.65a43.58,43.58,0,1,1-43.58-43.58A43.59,43.59,0,0,1,1112.12,1067.65Z" transform="translate(-940.85 -735.15)"/><path class="cls-5" d="M1176.3,789.44V923.72a12,12,0,0,1-11.89,11.94H972.67a12,12,0,0,1-11.9-11.94V789.44a12,12,0,0,1,11.9-11.94h191.74A12,12,0,0,1,1176.3,789.44Z" transform="translate(-940.85 -735.15)"/><rect class="cls-6" x="35.02" y="184.81" width="186.43" height="4.9"/><path class="cls-6" d="M1021.55,922.41a5.71,5.71,0,1,1-5.71-5.71A5.71,5.71,0,0,1,1021.55,922.41Z" transform="translate(-940.85 -735.15)"/></svg>